<svg xmlns="http://www.w3.org/2000/svg" viewBox="0 0 50 50" enable-background="new 0 0 50 50" width="25" height="25">
    <path style="text-indent:0;text-align:start;line-height:normal;text-transform:none;block-progression:tb;-inkscape-font-specification:Bitstream Vera Sans" d="M 25 1 C 11.759318 1 1 11.759318 1 25 C 1 38.240682 11.759318 49 25 49 C 38.240682 49 49 38.240682 49 25 C 49 11.759318 38.240682 1 25 1 z M 25 3 C 37.159318 3 47 12.840682 47 25 C 47 25.622816 46.956876 26.234112 46.90625 26.84375 C 45.513211 26.669567 42.755767 26.448475 38.6875 26.65625 C 38.818728 26.004615 38.902336 25.346022 38.90625 24.65625 C 38.90631 24.64563 38.90622 24.63563 38.90625 24.625 C 38.906797 24.61438 38.905746 24.60436 38.90625 24.59375 C 38.99422 22.741203 38.352388 21.002377 37.34375 19.46875 C 37.591139 18.614734 37.86491 17.515282 37.9375 16.28125 C 38.02011 14.876972 37.90864 13.333484 36.78125 12.28125 L 36.5 12 L 36.09375 12 C 33.392806 12 31.556542 13.13827 30.4375 14.03125 C 28.819341 13.407048 27.006391 13 25 13 C 22.987144 13 21.149894 13.411328 19.46875 14.03125 C 18.349708 13.13827 16.513444 12 13.8125 12 L 13.40625 12 L 13.125 12.28125 C 12.026815 13.300993 11.931497 14.79004 12 16.1875 C 12.05976 17.406641 12.322191 18.513984 12.5625 19.40625 C 11.509231 20.99107 10.90625 22.804299 10.90625 24.59375 C 10.90625 25.300047 10.960659 25.989673 11.09375 26.65625 C 7.1444271 26.468182 4.4612998 26.672755 3.09375 26.84375 C 3.0431245 26.234112 3 25.622816 3 25 C 3 12.840682 12.840682 3 25 3 z M 14.375 14.125 C 16.40988 14.308386 17.918425 15.215683 18.625 15.84375 L 19.09375 16.25 L 19.6875 16.03125 C 21.268952 15.380064 23.026984 15 25 15 C 26.973016 15 28.725675 15.391701 30.1875 16.03125 L 30.78125 16.28125 L 31.25 15.84375 C 31.952699 15.219128 33.48274 14.316327 35.5 14.125 C 35.766771 14.570923 35.993633 15.201991 35.9375 16.15625 C 35.87011 17.301972 35.575351 18.571377 35.34375 19.3125 L 35.1875 19.78125 L 35.5 20.1875 C 36.489475 21.536785 36.992027 22.987265 36.90625 24.53125 L 36.90625 24.5625 L 36.90625 24.59375 C 36.90625 27.089205 36.00764 29.082574 34.09375 30.5625 C 32.17986 32.042426 29.158523 33 24.90625 33 C 20.653977 33 17.63264 32.042426 15.71875 30.5625 C 13.80486 29.082574 12.90625 27.089205 12.90625 24.59375 C 12.90625 23.129044 13.429308 21.519693 14.40625 20.1875 L 14.6875 19.78125 L 14.5625 19.3125 C 14.330772 18.524625 14.056497 17.24629 14 16.09375 C 13.953228 15.139606 14.14643 14.533005 14.375 14.125 z M 7.75 27.5625 C 8.804408 27.553224 10.038523 27.585515 11.375 27.65625 C 11.434131 27.844135 11.491982 28.035785 11.5625 28.21875 C 7.4879633 28.300866 4.7331263 28.760951 3.375 29.0625 C 3.3019325 28.670838 3.2395504 28.2737 3.1875 27.875 C 4.0926406 27.756957 5.5624959 27.581743 7.75 27.5625 z M 42.25 27.5625 C 44.437504 27.581743 45.907359 27.756957 46.8125 27.875 C 46.76045 28.2737 46.698067 28.670838 46.625 29.0625 C 45.2459 28.756294 42.426949 28.288986 38.25 28.21875 C 38.320341 28.036183 38.378491 27.843709 38.4375 27.65625 C 39.851914 27.577131 41.145065 27.55278 42.25 27.5625 z M 37.8125 29.1875 C 42.188025 29.226929 45.057368 29.755417 46.40625 30.0625 C 44.658857 37.488114 39.149635 43.444508 32 45.84375 L 32 40.59375 C 32 39.009182 31.467923 37.269665 30.5625 35.8125 C 30.290873 35.37535 29.978958 34.966913 29.625 34.59375 C 31.934306 34.136586 33.834342 33.299244 35.3125 32.15625 C 36.385072 31.326878 37.218761 30.315539 37.8125 29.1875 z M 12.03125 29.21875 C 12.623959 30.334921 13.436468 31.333867 14.5 32.15625 C 16.036644 33.344469 18.033996 34.179505 20.46875 34.625 C 20.150877 34.95255 19.850852 35.30843 19.59375 35.6875 L 19.5625 35.65625 C 19.568 35.64995 19.063422 35.901503 18.3125 35.96875 C 17.561578 36.035997 16.633333 36 15.8125 36 C 14.603607 36 14.061564 35.434073 13.21875 34.40625 C 13.209451 34.393464 13.196882 34.38769 13.1875 34.375 C 12.708826 33.727546 12.130181 33.209877 11.5625 32.8125 C 10.983692 32.407335 10.486025 32.101838 9.875 32 L 9.78125 32 L 9.6875 32 C 9.2208333 32 8.7966085 32.04941 8.375 32.53125 C 8.1641957 32.772169 7.9993707 33.216233 8.09375 33.59375 C 8.188129 33.971267 8.442575 34.2013 8.65625 34.34375 C 10.018935 35.252207 10.243326 37.055939 11.09375 38.65625 C 11.10035 38.66873 11.1183 38.67505 11.125 38.6875 C 11.932864 40.25637 13.65508 41 15.40625 41 L 18 41 L 18 45.84375 C 10.850365 43.444508 5.3411426 37.488114 3.59375 30.0625 C 4.9259454 29.759216 7.7451599 29.26948 12.03125 29.21875 z M 23.6875 35.09375 L 26.5 35.09375 C 27.312821 35.09375 28.180423 35.757165 28.875 36.875 C 29.569577 37.992835 30 39.478318 30 40.59375 L 30 46.4375 C 28.393659 46.810233 26.720494 47 25 47 C 23.279506 47 21.606341 46.810233 20 46.4375 L 20 40.59375 C 20 39.503009 20.477593 37.997635 21.21875 36.875 C 21.959907 35.752365 22.874679 35.09375 23.6875 35.09375 z M 12.28125 36.28125 C 13.148273 37.183286 14.228634 38 15.8125 38 C 16.591667 38 17.544672 38.02025 18.46875 37.9375 C 18.349179 38.285277 18.262496 38.647853 18.1875 39 L 15.40625 39 C 14.172917 39 13.307488 38.552477 12.90625 37.75 L 12.875 37.75 L 12.875 37.71875 C 12.710729 37.413675 12.473031 36.809935 12.28125 36.28125 z" color="#000" overflow="visible" enable-background="accumulate" font-family="Bitstream Vera Sans"/>
</svg>