<svg xmlns="http://www.w3.org/2000/svg" width="25" height="25" viewBox="0 0 50 50">
    <path style="text-indent:0;text-align:start;line-height:normal;text-transform:none;block-progression:tb;-inkscape-font-specification:Bitstream Vera Sans" d="M 10 0 C 4.4666667 0 0 4.4666667 0 10 L 0 40 C 0 45.533333 4.4666667 50 10 50 L 40 50 C 45.533333 50 50 45.533333 50 40 L 50 10 C 50 4.4666667 45.533333 0 40 0 L 10 0 z M 10 2 L 40 2 C 44.466667 2 48 5.5333333 48 10 L 48 40 C 48 44.466667 44.466667 48 40 48 L 10 48 C 5.5333333 48 2 44.466667 2 40 L 2 10 C 2 5.5333333 5.5333333 2 10 2 z M 12 8 C 9.1608889 8 7 10.085659 7 12.6875 C 7 15.289341 9.1334445 17.5 12 17.5 C 14.947893 17.5 17 15.257976 17 12.6875 A 0.98809878 0.98809878 0 0 0 17 12.65625 C 16.878806 10.111186 14.839111 8 12 8 z M 12 10 C 13.947598 10 14.909678 11.082474 15 12.71875 C 14.986959 14.331029 14.038078 15.5 12 15.5 C 10.066556 15.5 9 14.285659 9 12.6875 C 9 11.089341 10.039111 10 12 10 z M 7.8125 18 A 1.0001 1.0001 0 0 0 7 19 L 7 42 A 1.0001 1.0001 0 0 0 8 43 L 16 43 A 1.0001 1.0001 0 0 0 17 42 L 17 34.90625 L 17 19 A 1.0001 1.0001 0 0 0 16 18 L 8 18 A 1.0001 1.0001 0 0 0 7.90625 18 A 1.0001 1.0001 0 0 0 7.8125 18 z M 18.8125 18 A 1.0001 1.0001 0 0 0 18 19 L 18 42 A 1.0001 1.0001 0 0 0 19 43 L 27 43 A 1.0001 1.0001 0 0 0 28 42 L 28 29 C 28 28.601515 28.131933 27.728665 28.5 27.09375 C 28.868067 26.458835 29.322222 26 30.5 26 C 31.896078 26 32.305262 26.494406 32.625 27.125 C 32.944738 27.755594 33 28.587037 33 29 L 33 42 A 1.0001 1.0001 0 0 0 34 43 L 42 43 A 1.0001 1.0001 0 0 0 43 42 L 43 29 C 43 25.45597 41.965023 22.688774 40.1875 20.8125 C 38.409977 18.936226 35.941667 18 33.3125 18 C 30.870508 18 29.147004 18.779858 28 19.625 L 28 19 A 1.0001 1.0001 0 0 0 27 18 L 19 18 A 1.0001 1.0001 0 0 0 18.90625 18 A 1.0001 1.0001 0 0 0 18.8125 18 z M 9 20 L 15 20 L 15 34.90625 L 15 41 L 9 41 L 9 20 z M 20 20 L 26 20 L 26 22.09375 A 1.0001 1.0001 0 0 0 27.875 22.5625 C 27.875 22.5625 28.164035 21.999824 29 21.34375 C 29.835965 20.687676 31.182358 20 33.3125 20 C 35.483333 20 37.346273 20.738774 38.71875 22.1875 C 40.091227 23.636226 41 25.84403 41 29 L 41 41 L 35 41 L 35 29 C 35 28.512963 34.986512 27.363156 34.40625 26.21875 C 33.825988 25.074344 32.503922 24 30.5 24 C 28.677778 24 27.381933 25.003665 26.75 26.09375 C 26.118067 27.183835 26 28.298485 26 29 L 26 41 L 20 41 L 20 20 z" color="#000" overflow="visible" enable-background="accumulate" font-family="Bitstream Vera Sans"/>
</svg>