<svg xmlns="http://www.w3.org/2000/svg" width="25" height="25" viewBox="0 0 50 50">
    <path style="text-indent:0;text-align:start;line-height:normal;text-transform:none;block-progression:tb;-inkscape-font-specification:Bitstream Vera Sans" d="M 25 4.0625 C 12.415167 4.0625 2.0625 12.925365 2.0625 24 C 2.0625 30.425884 5.623994 36.092353 11 39.71875 C 10.9918 39.932129 11.0012 40.265593 10.71875 41.3125 C 10.370008 42.605329 9.6829509 44.435593 8.25 46.46875 L 7.21875 47.90625 L 9 47.9375 C 15.175815 47.96438 18.755202 43.904433 19.3125 43.25 C 21.13696 43.655105 23.03358 43.9375 25 43.9375 C 37.583869 43.9375 47.9375 35.074694 47.9375 24 C 47.9375 12.925306 37.583869 4.0625 25 4.0625 z M 25 5.9375 C 36.716131 5.9375 46.0625 14.088694 46.0625 24 C 46.0625 33.911306 36.716131 42.0625 25 42.0625 C 22.998026 42.0625 21.05175 41.821463 19.21875 41.375 L 18.65625 41.25 L 18.28125 41.71875 C 18.28125 41.71875 15.391386 44.97636 10.78125 45.75 C 11.611861 44.258007 12.245409 42.872147 12.53125 41.8125 C 12.930258 40.333329 12.9375 39.3125 12.9375 39.3125 L 12.9375 38.8125 L 12.5 38.53125 C 7.2730647 35.217823 3.9375 29.943265 3.9375 24 C 3.9375 14.088635 13.282833 5.9375 25 5.9375 z" color="#000" overflow="visible" enable-background="accumulate" font-family="Bitstream Vera Sans"/>
</svg>